<?xml version="1.0" encoding="utf-8"?>
<!-- Generator: Adobe Illustrator 16.0.1, SVG Export Plug-In . SVG Version: 6.00 Build 0)  -->
<!DOCTYPE svg PUBLIC "-//W3C//DTD SVG 1.1//EN" "http://www.w3.org/Graphics/SVG/1.1/DTD/svg11.dtd">
<svg version="1.1" id="Layer_1" xmlns="http://www.w3.org/2000/svg" xmlns:xlink="http://www.w3.org/1999/xlink" x="0px" y="0px"
	 width="256px" height="256px" viewBox="0 0 256 256" enable-background="new 0 0 256 256" xml:space="preserve">
<polygon fill="#59666C" points="111.717,69.344 80.008,124.324 80.008,124.324 48.323,69.344 80.021,14.443 "/>
<polygon fill="#FFFFFF" points="143.432,14.445 80.039,14.445 111.736,69.346 175.146,69.344 "/>
<polygon fill="#59666C" points="143.414,124.351 175.124,69.37 175.124,69.37 206.809,124.351 175.111,179.248 "/>
<polygon fill="#FFFFFF" points="111.699,179.248 175.095,179.248 143.396,124.347 79.987,124.351 "/>
<polygon fill="#59666C" points="30.324,242.022 30.324,208.405 24.945,208.405 24.945,222.301 9.058,222.301 9.058,208.405 
	3.631,208.405 3.631,242.022 9.058,242.022 9.058,226.933 24.945,226.933 24.945,242.022 "/>
<polygon fill="#59666C" points="45.899,242.022 45.899,208.405 40.471,208.405 40.471,242.022 "/>
<path fill="#59666C" d="M78.403,231.861c0-3.484-2.042-6.824-6.424-7.669v-0.101c3.435-1.192,5.727-4.23,5.727-7.665
	c0-5.182-3.784-8.171-11.104-8.171c-4.085,0-7.919,0.101-10.558,0.147v33.618c3.737,0.048,7.123,0.147,9.164,0.147
	C75.514,242.171,78.403,236.243,78.403,231.861L78.403,231.861z M72.029,217.271c0,3.386-2.64,5.429-7.669,5.429
	c-1.144,0-1.993,0-2.889-0.049v-9.96c1.294-0.052,2.74-0.101,4.235-0.101C70.486,212.591,72.029,214.532,72.029,217.271
	L72.029,217.271z M72.676,231.962c0,3.387-2.339,5.776-7.269,5.776c-1.742,0-3.089-0.1-3.936-0.25v-10.706
	c0.749-0.048,2.49-0.048,3.039-0.048C69.241,226.734,72.676,228.126,72.676,231.962L72.676,231.962z"/>
<polygon fill="#59666C" points="104.148,242.022 104.148,237.393 91.849,237.393 91.849,226.933 103.551,226.933 103.551,222.5 
	91.849,222.5 91.849,212.94 104.148,212.94 104.148,208.405 86.419,208.405 86.419,242.022 "/>
<path fill="#59666C" d="M135.561,242.022l-8.863-11.703c-0.845-1.096-1.892-2.391-2.838-3.587c5.478-0.601,9.511-4.033,9.511-9.414
	c0-6.673-4.779-9.111-11.751-9.111c-3.786,0-6.575,0.049-9.014,0.196v33.618h5.428V227.48h0.249l10.458,14.542H135.561
	L135.561,242.022z M127.694,217.919c0,3.336-2.641,5.581-7.022,5.581c-1.196,0-2.143-0.055-2.639-0.102V212.74
	c0.797-0.049,1.793-0.101,2.838-0.101C125.402,212.64,127.694,214.233,127.694,217.919L127.694,217.919z"/>
<path fill="#FFFFFF" d="M169.507,242.022v-33.617h-5.277v9.962c0,4.931,0.147,12.151,0.349,15.987
	c-1.245-2.44-2.588-5.128-4.084-7.62l-11.105-18.329h-7.121v33.617h5.279v-11.304c0-4.783-0.101-11.603-0.299-14.892
	c1.046,2.242,2.239,4.632,3.735,7.072l11.503,19.123H169.507L169.507,242.022z"/>
<path fill="#FFFFFF" d="M205.404,242.022l-12.201-33.617h-6.023l-12.051,33.617h5.477l2.591-7.421h13.594l2.593,7.421H205.404
	L205.404,242.022z M195.345,230.268h-10.756l3.784-10.406c0.648-1.792,1.196-3.636,1.545-5.329h0.098
	c0.4,1.843,0.849,3.437,1.496,5.178L195.345,230.268L195.345,230.268z"/>
<polygon fill="#FFFFFF" points="228.157,212.988 228.157,208.405 204.255,208.405 204.255,212.988 213.467,212.988 213.467,242.022 
	218.894,242.022 218.894,212.988 "/>
<polygon fill="#FFFFFF" points="251.5,242.022 251.5,237.393 239.201,237.393 239.201,226.933 250.903,226.933 250.903,222.5 
	239.201,222.5 239.201,212.94 251.5,212.94 251.5,208.405 233.771,208.405 233.771,242.022 "/>
</svg>
