<?xml version="1.0" encoding="utf-8"?>
<!-- Generator: Adobe Illustrator 16.0.1, SVG Export Plug-In . SVG Version: 6.00 Build 0)  -->
<!DOCTYPE svg PUBLIC "-//W3C//DTD SVG 1.1//EN" "http://www.w3.org/Graphics/SVG/1.1/DTD/svg11.dtd">
<svg version="1.1" id="Layer_1" xmlns="http://www.w3.org/2000/svg" xmlns:xlink="http://www.w3.org/1999/xlink" x="0px" y="0px"
	 width="256px" height="256px" viewBox="0 0 256 256" enable-background="new 0 0 256 256" xml:space="preserve">
<g>
	<polygon fill="#5A676D" points="112.717,66.344 81.008,121.324 81.008,121.324 49.323,66.344 81.021,11.443 	"/>
	<polygon fill="#BCAE79" points="144.432,11.445 81.039,11.445 112.736,66.346 176.146,66.344 	"/>
	<polygon fill="#5A676D" points="144.414,121.351 176.124,66.37 176.124,66.37 207.809,121.351 176.111,176.248 	"/>
	<polygon fill="#BCAE79" points="112.699,176.248 176.096,176.248 144.396,121.347 80.987,121.351 	"/>
</g>
<g>
	<polygon fill="#5A676D" points="31.324,239.021 31.324,205.404 25.945,205.404 25.945,219.301 10.058,219.301 10.058,205.404 
		4.631,205.404 4.631,239.021 10.058,239.021 10.058,223.934 25.945,223.934 25.945,239.021 	"/>
	<polygon fill="#5A676D" points="46.899,239.021 46.899,205.404 41.471,205.404 41.471,239.021 	"/>
	<path fill="#5A676D" d="M79.403,228.861c0-3.484-2.042-6.824-6.424-7.67v-0.101c3.435-1.192,5.727-4.229,5.727-7.665
		c0-5.182-3.784-8.171-11.104-8.171c-4.085,0-7.919,0.101-10.558,0.147v33.617c3.737,0.049,7.123,0.147,9.164,0.147
		C76.514,239.171,79.403,233.243,79.403,228.861L79.403,228.861z M73.029,214.271c0,3.386-2.64,5.429-7.669,5.429
		c-1.144,0-1.993,0-2.889-0.05v-9.959c1.294-0.053,2.74-0.102,4.235-0.102C71.486,209.591,73.029,211.532,73.029,214.271
		L73.029,214.271z M73.676,228.962c0,3.388-2.339,5.776-7.269,5.776c-1.742,0-3.089-0.1-3.936-0.25v-10.706
		c0.749-0.048,2.49-0.048,3.039-0.048C70.241,223.734,73.676,225.126,73.676,228.962L73.676,228.962z"/>
	<polygon fill="#5A676D" points="105.148,239.021 105.148,234.393 92.849,234.393 92.849,223.934 104.551,223.934 104.551,219.5 
		92.849,219.5 92.849,209.939 105.148,209.939 105.148,205.404 87.419,205.404 87.419,239.021 	"/>
	<path fill="#5A676D" d="M136.561,239.021l-8.862-11.703c-0.845-1.096-1.892-2.391-2.838-3.586c5.478-0.602,9.511-4.033,9.511-9.414
		c0-6.674-4.779-9.111-11.751-9.111c-3.786,0-6.575,0.049-9.014,0.195v33.619h5.428V224.48h0.249l10.458,14.541H136.561
		L136.561,239.021z M128.693,214.919c0,3.336-2.64,5.581-7.021,5.581c-1.196,0-2.143-0.055-2.639-0.102V209.74
		c0.797-0.049,1.793-0.102,2.838-0.102C126.402,209.641,128.693,211.232,128.693,214.919L128.693,214.919z"/>
	<path fill="#BCAE79" d="M170.507,239.021v-33.617h-5.276v9.963c0,4.931,0.146,12.15,0.349,15.986
		c-1.245-2.439-2.588-5.127-4.084-7.619l-11.104-18.329h-7.121v33.616h5.278v-11.304c0-4.782-0.101-11.603-0.299-14.892
		c1.046,2.242,2.239,4.632,3.735,7.072l11.502,19.123H170.507L170.507,239.021z"/>
	<path fill="#BCAE79" d="M206.404,239.021l-12.201-33.617h-6.023l-12.051,33.617h5.477l2.592-7.42h13.594l2.593,7.42H206.404
		L206.404,239.021z M196.346,227.268h-10.757l3.784-10.406c0.648-1.791,1.195-3.635,1.545-5.328h0.098
		c0.4,1.843,0.85,3.438,1.496,5.178L196.346,227.268L196.346,227.268z"/>
	<polygon fill="#BCAE79" points="229.157,209.988 229.157,205.404 205.255,205.404 205.255,209.988 214.467,209.988 
		214.467,239.021 219.895,239.021 219.895,209.988 	"/>
	<polygon fill="#BCAE79" points="252.5,239.021 252.5,234.393 240.201,234.393 240.201,223.934 251.902,223.934 251.902,219.5 
		240.201,219.5 240.201,209.939 252.5,209.939 252.5,205.404 234.771,205.404 234.771,239.021 	"/>
</g>
</svg>
