<?xml version="1.0" encoding="utf-8"?>
<!-- Generator: Adobe Illustrator 15.0.2, SVG Export Plug-In . SVG Version: 6.00 Build 0)  -->
<!DOCTYPE svg PUBLIC "-//W3C//DTD SVG 1.1//EN" "http://www.w3.org/Graphics/SVG/1.1/DTD/svg11.dtd">
<svg version="1.1" id="Layer_1" xmlns="http://www.w3.org/2000/svg" xmlns:xlink="http://www.w3.org/1999/xlink" x="0px" y="0px"
	 width="600px" height="100px" viewBox="0 0 600 100" enable-background="new 0 0 600 100" xml:space="preserve">
<polygon fill="#59666C" points="43.788,45.574 30.477,68.659 30.477,68.659 17.173,45.574 30.481,22.524 43.788,45.574 "/>
<polygon fill="#BCAE79" points="57.104,22.527 30.488,22.527 43.796,45.576 70.419,45.574 "/>
<polygon fill="#59666C" points="57.098,68.668 70.41,45.583 70.41,45.583 83.712,68.668 70.404,91.717 57.098,68.668 "/>
<polygon fill="#BCAE79" points="43.781,91.717 70.397,91.717 57.088,68.668 30.466,68.668 "/>
<polygon fill="#59666C" points="131.963,68.323 131.963,22.795 124.68,22.795 124.68,41.614 103.164,41.614 103.164,22.795 
	95.812,22.795 95.812,68.323 103.164,68.323 103.164,47.888 124.68,47.888 124.68,68.323 131.963,68.323 "/>
<polygon fill="#59666C" points="153.063,68.323 153.063,22.795 145.709,22.795 145.709,68.323 153.063,68.323 "/>
<path fill-rule="evenodd" clip-rule="evenodd" fill="#59666C" d="M197.092,54.565c0-4.722-2.768-9.241-8.704-10.385v-0.137
	c4.655-1.62,7.758-5.733,7.758-10.387c0-7.015-5.127-11.061-15.041-11.061c-5.534,0-10.727,0.135-14.303,0.201v45.528
	c5.062,0.07,9.647,0.205,12.413,0.205C193.179,68.528,197.092,60.502,197.092,54.565L197.092,54.565z M188.456,34.802
	c0,4.586-3.574,7.353-10.389,7.353c-1.552,0-2.698,0-3.912-0.068V28.598c1.755-0.07,3.71-0.135,5.734-0.135
	C186.364,28.463,188.456,31.091,188.456,34.802L188.456,34.802z M189.332,54.7c0,4.585-3.169,7.825-9.848,7.825
	c-2.361,0-4.18-0.135-5.329-0.335V47.685c1.014-0.067,3.373-0.067,4.114-0.067C184.679,47.618,189.332,49.508,189.332,54.7
	L189.332,54.7z"/>
<polygon fill="#59666C" points="231.961,68.323 231.961,62.054 215.3,62.054 215.3,47.888 231.153,47.888 231.153,41.884 
	215.3,41.884 215.3,28.934 231.961,28.934 231.961,22.795 207.947,22.795 207.947,68.323 231.961,68.323 "/>
<path fill-rule="evenodd" clip-rule="evenodd" fill="#59666C" d="M274.509,68.323l-12.003-15.851
	c-1.148-1.482-2.563-3.235-3.847-4.854c7.42-0.809,12.884-5.463,12.884-12.749c0-9.04-6.477-12.345-15.918-12.345
	c-5.127,0-8.904,0.07-12.209,0.271v45.528h7.353V48.631h0.335l14.164,19.692H274.509L274.509,68.323z M263.854,35.678
	c0,4.521-3.578,7.556-9.512,7.556c-1.62,0-2.9-0.068-3.573-0.135V28.663c1.077-0.065,2.426-0.135,3.842-0.135
	C260.751,28.528,263.854,30.686,263.854,35.678L263.854,35.678z"/>
<path fill="#BCAE79" d="M320.49,68.323V22.795h-7.15v13.489c0,6.679,0.203,16.46,0.476,21.655c-1.688-3.305-3.51-6.95-5.535-10.322
	l-15.042-24.823h-9.645v45.528h7.149V53.013c0-6.474-0.133-15.715-0.403-20.168c1.415,3.037,3.034,6.274,5.06,9.579l15.582,25.9
	H320.49L320.49,68.323z"/>
<path fill-rule="evenodd" clip-rule="evenodd" fill="#BCAE79" d="M369.112,68.323l-16.526-45.528h-8.161l-16.323,45.528h7.421
	l3.507-10.048h18.416l3.506,10.048H369.112L369.112,68.323z M355.488,52.407h-14.571l5.128-14.098
	c0.878-2.428,1.619-4.924,2.09-7.218h0.136c0.54,2.496,1.146,4.654,2.024,7.015L355.488,52.407L355.488,52.407z"/>
<polygon fill="#BCAE79" points="399.932,29.001 399.932,22.795 367.553,22.795 367.553,29.001 380.033,29.001 380.033,68.323 
	387.384,68.323 387.384,29.001 399.932,29.001 "/>
<polygon fill="#BCAE79" points="431.551,68.323 431.551,62.054 414.889,62.054 414.889,47.888 430.741,47.888 430.741,41.884 
	414.889,41.884 414.889,28.934 431.551,28.934 431.551,22.795 407.538,22.795 407.538,68.323 431.551,68.323 "/>
<g>
	<path fill="#59666C" d="M471.135,69.179c-12.553,0-22.133-9.919-22.133-23.01c0-13.429,9.58-23.549,22.133-23.549
		c12.617,0,22.063,9.919,22.063,23.278C493.198,59.26,483.82,69.179,471.135,69.179z M471.067,27.815
		c-9.245,0-16.263,7.827-16.263,18.083c0,10.46,6.882,18.085,16.195,18.085c9.58,0,16.395-7.558,16.395-18.153
		C487.395,35.44,480.445,27.815,471.067,27.815z"/>
	<path fill="#59666C" d="M540.091,44.077c0,0.944,0.068,1.754,0.068,2.564c0,5.938-1.417,10.122-4.725,14.304
		c-4.251,5.467-10.054,8.234-16.868,8.234c-12.755,0-22.201-9.786-22.201-23.077c0-13.698,9.312-23.481,22.201-23.481
		c6.814,0,12.617,2.834,16.936,8.164l-4.251,3.441c-1.822-2.024-2.498-2.699-3.779-3.577c-2.496-1.821-5.736-2.833-8.905-2.833
		c-9.313,0-16.398,7.895-16.398,18.151c0,10.189,7.153,18.083,16.331,18.083c4.924,0,10.121-2.699,12.888-6.611
		c1.888-2.631,2.429-4.251,2.901-8.57h-15.654v-4.791H540.091z"/>
	<path fill="#59666C" d="M551.42,68.37h-5.668V23.429h5.601l16.668,33.739l16.801-33.739h5.601V68.37h-5.668V35.44l-16.733,33.4
		l-16.601-33.4V68.37z"/>
</g>
</svg>
