<?xml version="1.0" encoding="UTF-8"?>
<svg id="Layer_1" data-name="Layer 1" xmlns="http://www.w3.org/2000/svg" viewBox="0 0 1350 286">
  <g>
    <rect x="4" y="4" width="278.72" height="278.72" style="fill: #012626;"/>
    <path d="m231.16,24.81h20.36c1.06,0,1.79,1.06,1.41,2.04-2.89,7.59-11.12,25.68-30.8,39.47-1.05.74-2.49-.09-2.37-1.37,2.08-23.38,7.84-35.28,10.07-39.36.26-.48.77-.78,1.32-.78Z" style="fill: #a9d962;"/>
    <path d="m213.34,26.94c-3.04,6.84-5.35,14.41-7.06,22.33-.26,1.18-1.73,1.61-2.56.73-3.23-3.4-9.38-10.96-14.3-23.12-.4-.99.34-2.07,1.4-2.07h21.15c1.09,0,1.82,1.13,1.38,2.13Z" style="fill: #78a658;"/>
    <path d="m112.54,24.81h9.49c.85,0,1.53.7,1.51,1.55-.95,38.16,1.87,72.73,3.71,92.55.1,1.04-.86,1.86-1.87,1.6-4.81-1.21-16.69-4.23-25.37-6.62-.47-.13-.85-.48-1.02-.94-2.96-8.29-10.57-30.27-13.2-39.07-.21-.69.11-1.43.75-1.76,14.16-7.44,21.73-26.71,24.51-45.99.11-.75.74-1.3,1.49-1.3Z" style="fill: #4d7343;"/>
    <path d="m104.81,26.62c-1.81,9.06-7.06,29.13-19.77,37.09-.87.54-2.01.07-2.26-.92-3.78-15-5.79-28.2-6.65-36.31-.09-.89.61-1.67,1.5-1.67h25.7c.95,0,1.67.87,1.48,1.81Z" style="fill: #78a658;"/>
    <path d="m26.32,24.81h35.2c.81,0,1.47.64,1.51,1.45.42,9.73,1.49,19.41,3.04,29.01.17,1.03-.74,1.92-1.77,1.73-16.44-3.01-29.31-6.79-38.58-10.69-.56-.23-.92-.78-.92-1.39v-18.6c0-.83.68-1.51,1.51-1.51Z" style="fill: #a9d962;"/>
    <path d="m26.92,55.38c14.78,6.4,32.05,10.57,40.53,12.42.58.13,1.03.58,1.15,1.17,2.5,12.09,5.65,24.07,9.1,35.93.34,1.16-.74,2.22-1.9,1.86-9.56-2.99-34.24-10.95-50.23-19.94-.47-.27-.76-.77-.76-1.31v-28.75c0-1.09,1.11-1.82,2.11-1.38Z" style="fill: #78a658;"/>
    <path d="m24.81,262.41v-41.5c0-1.09,1.11-1.82,2.11-1.39,10.92,4.73,49.85,20,116.42,20.85.72,0,1.33.52,1.46,1.22,1.31,6.85,2.67,13.69,4.08,20.52.19.94-.52,1.81-1.48,1.81H26.32c-.83,0-1.51-.68-1.51-1.51Z" style="fill: #bad3d9;"/>
    <path d="m263.34,174.52c-6.44,4.97-13.27,9.55-20.28,13.75-.96.57-2.18-.04-2.28-1.15-.73-7.93-1.36-34.46,20.53-58.18.94-1.01,2.63-.36,2.63,1.02v43.37c0,.47-.22.91-.59,1.2Z" style="fill: #a9d962;"/>
    <path d="m263.52,71.43c-9.59,10.2-22.79,19.9-41.91,28.82-.97.45-2.09-.21-2.15-1.28-.38-6.61-.56-13.44-.42-20.29.01-.52.29-.99.73-1.26,4.92-3,29.96-19.28,39.57-51.52.19-.64.78-1.09,1.45-1.09h1.63c.83,0,1.51.68,1.51,1.51v44.08c0,.38-.14.75-.41,1.04Z" style="fill: #78a658;"/>
    <path d="m64.69,207.02c-5.92-20.66-19.68-41.44-37.31-58.68-.95-.93-2.56-.25-2.56,1.08v45.62c0,.58.33,1.11.85,1.36,14.93,7.18,31.14,11.15,37.24,12.5,1.12.25,2.09-.79,1.78-1.89Z" style="fill: #78a658;"/>
    <g>
      <path d="m232.49,175.68l-6.75-6.24c-.97-.89-2.53-.21-2.53,1.11v26c0,1.13,1.19,1.85,2.19,1.35,2.41-1.21,4.81-2.45,7.19-3.72.55-.3.86-.9.78-1.52-.65-5.21-.77-10.5-.39-15.76.03-.46-.14-.9-.48-1.22Z" style="fill: #4d7343;"/>
      <path d="m199.55,132.87l33.09,30.87c.85.79,2.23.37,2.5-.76,1.14-4.71,2.68-9.32,4.59-13.75,5.24-12.12,13.65-22.79,23.67-31.33.34-.29.53-.7.53-1.15v-17.02c0-1.26-1.46-1.96-2.45-1.18-17.8,14.1-39.42,24.4-61.38,31.78-1.08.36-1.38,1.75-.54,2.53Z" style="fill: #4d7343;"/>
    </g>
    <path d="m169.81,105.12l9.79,9.14c.38.35.91.49,1.42.36,6.77-1.78,13.5-3.8,20.12-6.1.63-.22,1.04-.82,1.01-1.48-.53-14.14-.2-30.2,1.99-45.66.07-.49-.1-.97-.46-1.31-2.94-2.74-15.62-15.97-19.91-34.1-.16-.68-.77-1.15-1.47-1.15h-15.97c-.84,0-1.52.69-1.51,1.53.18,11.59,2.33,56.86,4.51,77.83.04.36.21.7.47.94Z" style="fill: #4d7343;"/>
    <path d="m92.39,169.45l-7.14,6.59c-.61.56-1.56.53-2.13-.08l-3.97-4.25c-.57-.61-.54-1.57.07-2.13l31.55-29.43c.85-.8.52-2.22-.6-2.55-24.8-7.37-58.68-18.4-83.17-30.99-1-.52-2.2.21-2.2,1.34v29.14c0,.44.2.86.53,1.15,33.35,28.38,44.88,57.61,48.47,71.94.14.58.62,1.02,1.2,1.12,6.04,1.06,12.12,1.94,18.22,2.65.9.1,1.68-.6,1.68-1.5v-41.88c0-1.32-1.57-2-2.53-1.11Z" style="fill: #4d7343;"/>
    <path d="m158.03,108.16l-53.8,50.3c-.31.29-.48.68-.48,1.1v51.01c0,.83.68,1.51,1.51,1.51h35.52c.83,0,1.51-.68,1.51-1.51v-48.32c0-.83.68-1.51,1.51-1.51h29.91c.83,0,1.51.68,1.51,1.51v48.32c0,.83.68,1.51,1.51,1.51h15.51c.18,0,.35-.03.52-.09,7-2.55,13.92-5.37,20.72-8.42.54-.24.89-.78.89-1.38v-42.63c0-.42-.17-.82-.48-1.1l-53.8-50.3c-.58-.54-1.48-.54-2.06,0Z" style="fill: #fff;"/>
    <path d="m191.94,239.34c1.14,5.02,4.46,19.25,5.44,23.42.16.68.77,1.16,1.47,1.16h63.57c.83,0,1.51-.68,1.51-1.51v-60.12c0-1.23-1.39-1.94-2.39-1.23-29.28,21.02-62,33.99-68.66,36.53-.7.27-1.1,1.01-.93,1.74Z" style="fill: #bad3d9;"/>
  </g>
  <g>
    <path d="m380.17,113.5c8.45,4.98,18.14,7.47,29.06,7.47,7.81,0,15.04-1.39,21.67-4.17,6.63-2.78,12.44-6.69,17.42-11.72,4.98-5.03,8.8-10.81,11.48-17.34l-20.39-7.38c-1.82,4.07-4.2,7.65-7.14,10.76-2.94,3.11-6.32,5.54-10.11,7.31-3.8,1.77-8,2.65-12.6,2.65-6.64,0-12.52-1.63-17.66-4.9-5.14-3.26-9.15-7.76-12.04-13.49-2.89-5.72-4.33-12.33-4.33-19.83s1.42-14.07,4.25-19.75c2.83-5.67,6.8-10.14,11.88-13.41,5.08-3.26,10.89-4.9,17.42-4.9,4.5,0,8.67.83,12.52,2.49,3.85,1.66,7.28,3.96,10.27,6.9,3,2.94,5.4,6.4,7.22,10.35l20.39-7.54c-2.68-6.31-6.5-11.91-11.48-16.78-4.98-4.87-10.78-8.67-17.42-11.4-6.64-2.73-13.81-4.09-21.51-4.09-10.92,0-20.58,2.49-28.98,7.46-8.4,4.98-15.01,11.83-19.83,20.55-4.82,8.72-7.22,18.76-7.22,30.1s2.41,21.38,7.22,30.1c4.82,8.72,11.45,15.57,19.91,20.55Z" style="fill: #012626;"/>
    <path d="m545.37,100.74c3.53-6.31,5.3-13.59,5.3-21.83s-1.77-15.52-5.3-21.83c-3.53-6.31-8.46-11.26-14.77-14.85-6.32-3.58-13.59-5.38-21.83-5.38s-15.36,1.79-21.67,5.38c-6.32,3.59-11.24,8.54-14.77,14.85-3.53,6.32-5.3,13.59-5.3,21.83s1.79,15.52,5.38,21.83c3.58,6.32,8.53,11.27,14.85,14.85,6.31,3.59,13.59,5.38,21.83,5.38s15.33-1.79,21.59-5.38c6.26-3.58,11.16-8.53,14.69-14.85Zm-18.94-10.19c-1.71,3.37-4.04,6.02-6.98,7.95-2.94,1.93-6.4,2.89-10.35,2.89s-7.49-.96-10.6-2.89c-3.11-1.93-5.51-4.57-7.22-7.95-1.71-3.37-2.57-7.25-2.57-11.64s.86-8.27,2.57-11.64c1.71-3.37,4.09-6.02,7.14-7.95s6.55-2.89,10.51-2.89,7.31.96,10.36,2.89c3.05,1.93,5.43,4.57,7.14,7.95,1.71,3.37,2.57,7.25,2.57,11.64s-.86,8.27-2.57,11.64Z" style="fill: #012626;"/>
    <path d="m635.11,119.04v-42.06c0-6.74,1.39-11.82,4.17-15.25,2.78-3.42,6.74-5.08,11.88-4.98,2.78,0,5.19.67,7.22,2.01,2.03,1.34,3.64,3.51,4.82,6.5,1.18,3,1.77,7.22,1.77,12.68v41.1h21.19v-45.91c0-12.31-2.46-21.43-7.38-27.37-4.92-5.94-12.1-8.91-21.51-8.91-5.67,0-10.65,1.47-14.93,4.41-4.28,2.94-7.6,7.14-9.95,12.6-2.03-5.78-5.27-10.06-9.71-12.84-4.44-2.78-9.93-4.17-16.46-4.17-4.71,0-8.99,1.04-12.84,3.13-3.85,2.09-7.01,5.16-9.47,9.23l-.96-10.44h-19.91v80.27h21.19v-42.06c0-6.74,1.37-11.82,4.09-15.25,2.73-3.42,6.66-5.08,11.8-4.98,2.78,0,5.22.67,7.3,2.01,2.09,1.34,3.69,3.51,4.82,6.5,1.12,3,1.69,7.22,1.69,12.68v41.1h21.19Z" style="fill: #012626;"/>
    <path d="m803.36,119.04h21.19v-45.91c0-12.31-2.46-21.43-7.38-27.37-4.92-5.94-12.1-8.91-21.51-8.91-5.67,0-10.65,1.47-14.93,4.41-4.28,2.94-7.6,7.14-9.95,12.6-2.03-5.78-5.27-10.06-9.71-12.84-4.44-2.78-9.93-4.17-16.46-4.17-4.71,0-8.99,1.04-12.84,3.13-3.85,2.09-7.01,5.16-9.47,9.23l-.96-10.44h-19.91v80.27h21.19v-42.06c0-6.74,1.37-11.82,4.09-15.25,2.73-3.42,6.66-5.08,11.8-4.98,2.78,0,5.22.67,7.3,2.01,2.09,1.34,3.69,3.51,4.82,6.5,1.12,3,1.69,7.22,1.69,12.68v41.1h21.19v-42.06c0-6.74,1.39-11.82,4.17-15.25,2.78-3.42,6.74-5.08,11.88-4.98,2.78,0,5.19.67,7.22,2.01,2.03,1.34,3.64,3.51,4.82,6.5,1.18,3,1.77,7.22,1.77,12.68v41.1Z" style="fill: #012626;"/>
    <path d="m913.81,100.74c3.53-6.31,5.3-13.59,5.3-21.83s-1.77-15.52-5.3-21.83c-3.53-6.31-8.46-11.26-14.77-14.85-6.32-3.58-13.59-5.38-21.83-5.38s-15.36,1.79-21.67,5.38c-6.32,3.59-11.24,8.54-14.77,14.85-3.53,6.32-5.3,13.59-5.3,21.83s1.79,15.52,5.38,21.83c3.58,6.32,8.53,11.27,14.85,14.85,6.31,3.59,13.59,5.38,21.83,5.38s15.33-1.79,21.59-5.38c6.26-3.58,11.16-8.53,14.69-14.85Zm-18.94-10.19c-1.71,3.37-4.04,6.02-6.98,7.95-2.94,1.93-6.4,2.89-10.35,2.89s-7.49-.96-10.6-2.89c-3.11-1.93-5.51-4.57-7.22-7.95-1.71-3.37-2.57-7.25-2.57-11.64s.86-8.27,2.57-11.64c1.71-3.37,4.09-6.02,7.14-7.95,3.05-1.93,6.55-2.89,10.51-2.89s7.31.96,10.35,2.89c3.05,1.93,5.43,4.57,7.14,7.95,1.71,3.37,2.57,7.25,2.57,11.64s-.86,8.27-2.57,11.64Z" style="fill: #012626;"/>
    <path d="m1005.79,119.04v-45.43c.11-8.56-1.02-15.54-3.37-20.95-2.36-5.4-5.78-9.39-10.27-11.96s-9.9-3.85-16.21-3.85-11.43,1.58-15.97,4.74c-2.99,2.08-5.53,4.77-7.65,8.05l-.94-10.85h-19.91v80.27h21.19v-42.06c0-6.74,1.47-11.82,4.41-15.25,2.94-3.42,7.14-5.08,12.6-4.98,3,0,5.62.67,7.87,2.01,2.25,1.34,3.99,3.51,5.22,6.5,1.23,3,1.85,7.22,1.85,12.68v41.1h21.19Z" style="fill: #012626;"/>
    <path d="m1095.7,119.04v-45.43c0-8.56-1.18-15.54-3.53-20.95-2.36-5.4-5.75-9.39-10.19-11.96-4.44-2.57-9.87-3.85-16.29-3.85s-11.43,1.58-15.97,4.74c-2.83,1.96-5.26,4.47-7.3,7.5V6.66h-21.19v112.38h21.19v-42.06c0-6.74,1.47-11.82,4.41-15.25,2.94-3.42,7.14-5.08,12.6-4.98,3,0,5.62.67,7.87,2.01,2.25,1.34,4.01,3.51,5.3,6.5,1.28,3,1.93,7.22,1.93,12.68v41.1h21.19Z" style="fill: #012626;"/>
    <path d="m1163.85,41.5c-5.41-3.1-12.18-4.66-20.31-4.66-6.74,0-12.44,1.04-17.1,3.13-4.66,2.09-8.43,4.76-11.32,8.03-2.89,3.27-5.08,6.61-6.58,10.03l18.62,6.42c1.93-3.1,4.28-5.4,7.06-6.9,2.78-1.5,5.88-2.25,9.31-2.25,3.75,0,6.72.94,8.91,2.81,2.19,1.87,3.8,4.52,4.82,7.95.41,1.38.71,2.89.96,4.49h-18.86c-10.38,0-18.44,2.17-24.16,6.5-5.73,4.33-8.59,10.78-8.59,19.35,0,7.81,2.65,13.86,7.95,18.14,5.3,4.28,12.76,6.42,22.39,6.42s16.67-3.05,20.79-9.15c.47-.69.9-1.42,1.31-2.18l.37,9.4h19.75l.48-44.47c.11-7.71-1.15-14.37-3.77-19.99-2.62-5.62-6.64-9.98-12.04-13.08Zm-7.47,52.9c-1.61,2.62-3.77,4.76-6.5,6.42-2.73,1.66-5.86,2.49-9.39,2.49-3.85,0-6.85-.67-8.99-2.01-2.14-1.34-3.21-3.18-3.21-5.54,0-3,1.34-5.32,4.01-6.98,2.67-1.66,7.49-2.49,14.45-2.49h12.04c0,2.78-.8,5.49-2.41,8.11Z" style="fill: #012626;"/>
    <path d="m1246.6,80.83c0,6.64-1.44,11.69-4.33,15.17-2.89,3.48-7.12,5.16-12.68,5.06-2.89,0-5.49-.67-7.79-2.01-2.3-1.34-4.07-3.53-5.3-6.58-1.23-3.05-1.85-7.25-1.85-12.6v-41.1h-21.19v45.43c0,8.56,1.15,15.55,3.45,20.95,2.3,5.41,5.7,9.39,10.19,11.96,4.49,2.57,9.95,3.85,16.37,3.85s11.4-1.58,15.89-4.74c2.94-2.06,5.46-4.73,7.57-7.98l.94,10.79h19.91V38.77h-21.19v42.06Z" style="fill: #012626;"/>
    <path d="m1344.77,86.37c-1.44-3.48-3.75-6.64-6.9-9.47-3.16-2.83-7.36-4.9-12.6-6.18l-10.44-2.57c-2.78-.64-4.92-1.42-6.42-2.33-1.5-.91-2.25-2.06-2.25-3.45,0-2.14.78-3.82,2.33-5.06,1.55-1.23,3.77-1.85,6.66-1.85s5.78.67,8.67,2.01c2.89,1.34,4.71,3.08,5.46,5.22l17.5-8.03c-1.18-3.53-3.32-6.63-6.42-9.31-3.11-2.67-6.82-4.76-11.16-6.26-4.33-1.5-9.02-2.25-14.05-2.25-9.74,0-17.26,2.25-22.56,6.74-5.3,4.5-7.95,10.86-7.95,19.1,0,5.78,2.22,10.89,6.66,15.33,4.44,4.44,10.52,7.68,18.22,9.71l7.38,1.93c2.67.64,4.79,1.42,6.34,2.33,1.55.91,2.33,2.33,2.33,4.25s-.96,3.4-2.89,4.41c-1.93,1.02-4.66,1.53-8.19,1.53s-6.85-.94-9.63-2.81c-2.78-1.87-4.98-4.09-6.58-6.66l-18.14,8.35c1.93,4.28,4.6,7.89,8.03,10.84,3.42,2.94,7.39,5.19,11.88,6.74,4.5,1.55,9.31,2.33,14.45,2.33,6.21,0,11.74-1.02,16.62-3.05,4.87-2.03,8.72-4.9,11.56-8.59,2.83-3.69,4.25-7.95,4.25-12.76,0-3.32-.72-6.71-2.17-10.19Z" style="fill: #012626;"/>
    <polygon points="359.62 282.07 381.62 282.07 381.62 236.8 423.36 236.8 423.36 216.73 381.62 216.73 381.62 189.76 431.71 189.76 431.71 169.7 359.62 169.7 359.62 282.07" style="fill: #012626;"/>
    <path d="m501.86,205.26c-6.32-3.59-13.59-5.38-21.83-5.38s-15.36,1.79-21.67,5.38c-6.32,3.59-11.24,8.54-14.77,14.85-3.53,6.32-5.3,13.59-5.3,21.83s1.79,15.52,5.38,21.83c3.58,6.32,8.53,11.27,14.85,14.85,6.31,3.58,13.59,5.38,21.83,5.38s15.33-1.79,21.59-5.38c6.26-3.58,11.16-8.53,14.69-14.85,3.53-6.31,5.3-13.59,5.3-21.83s-1.77-15.52-5.3-21.83c-3.53-6.31-8.46-11.26-14.77-14.85Zm-4.17,48.32c-1.71,3.37-4.04,6.02-6.98,7.95-2.94,1.93-6.4,2.89-10.35,2.89s-7.49-.96-10.6-2.89c-3.11-1.93-5.51-4.57-7.22-7.95-1.71-3.37-2.57-7.25-2.57-11.64s.86-8.27,2.57-11.64c1.71-3.37,4.09-6.02,7.14-7.95,3.05-1.93,6.55-2.89,10.52-2.89s7.3.96,10.35,2.89c3.05,1.93,5.43,4.57,7.14,7.95,1.71,3.37,2.57,7.25,2.57,11.64s-.86,8.27-2.57,11.64Z" style="fill: #012626;"/>
    <path d="m585.98,243.86c0,6.64-1.45,11.69-4.34,15.17-2.89,3.48-7.12,5.17-12.68,5.06-2.89,0-5.49-.67-7.79-2.01-2.3-1.34-4.07-3.53-5.3-6.58-1.23-3.05-1.85-7.25-1.85-12.6v-41.1h-21.19v45.43c0,8.56,1.15,15.55,3.45,20.95,2.3,5.41,5.7,9.39,10.19,11.96,4.5,2.57,9.95,3.85,16.38,3.85s11.4-1.58,15.89-4.74c2.94-2.06,5.46-4.73,7.57-7.98l.94,10.79h19.91v-80.27h-21.19v42.06Z" style="fill: #012626;"/>
    <path d="m684.55,203.73c-4.5-2.57-9.9-3.85-16.21-3.85s-11.43,1.58-15.97,4.74c-2.99,2.08-5.53,4.77-7.65,8.05l-.94-10.85h-19.91v80.27h21.19v-42.06c0-6.74,1.47-11.82,4.42-15.25,2.94-3.42,7.14-5.08,12.6-4.98,3,0,5.62.67,7.87,2.01,2.25,1.34,3.99,3.51,5.22,6.5,1.23,3,1.85,7.22,1.85,12.68v41.1h21.19v-45.43c.11-8.56-1.02-15.55-3.37-20.95-2.36-5.4-5.78-9.39-10.27-11.96Z" style="fill: #012626;"/>
    <path d="m769.48,212.42c-1.96-2.94-4.28-5.42-6.98-7.41-4.66-3.42-10.35-5.14-17.1-5.14-7.38,0-13.78,1.71-19.18,5.14-5.41,3.43-9.61,8.27-12.6,14.53-3,6.26-4.5,13.73-4.5,22.4s1.5,16,4.5,22.32c3,6.32,7.2,11.19,12.6,14.61,5.4,3.42,11.8,5.14,19.18,5.14,6.74,0,12.44-1.71,17.1-5.14,2.83-2.08,5.25-4.71,7.27-7.86l.83,11.07h20.07v-112.38h-21.19v42.73Zm-8.91,49.26c-2.84,1.93-6.08,2.89-9.71,2.89-3.85,0-7.25-.96-10.19-2.89-2.94-1.93-5.27-4.6-6.98-8.03-1.71-3.42-2.57-7.33-2.57-11.72s.85-8.29,2.57-11.72c1.71-3.42,4.01-6.07,6.9-7.95,2.89-1.87,6.26-2.81,10.11-2.81s7.04.94,9.87,2.81c2.83,1.87,5.06,4.52,6.66,7.95,1.2,2.55,1.94,5.37,2.25,8.45v6.54c-.31,3.08-1.05,5.9-2.25,8.45-1.61,3.43-3.83,6.1-6.66,8.03Z" style="fill: #012626;"/>
    <path d="m860.26,204.53c-5.41-3.1-12.18-4.66-20.31-4.66-6.74,0-12.44,1.04-17.1,3.13-4.66,2.09-8.43,4.76-11.32,8.03-2.89,3.27-5.08,6.61-6.58,10.03l18.62,6.42c1.93-3.1,4.28-5.4,7.06-6.9,2.78-1.5,5.88-2.25,9.31-2.25,3.75,0,6.72.94,8.91,2.81,2.19,1.87,3.8,4.52,4.82,7.95.41,1.38.71,2.9.96,4.5h-18.86c-10.38,0-18.44,2.17-24.16,6.5-5.73,4.33-8.59,10.78-8.59,19.34,0,7.81,2.65,13.86,7.95,18.14,5.3,4.28,12.76,6.42,22.4,6.42s16.67-3.05,20.79-9.15c.47-.69.9-1.42,1.31-2.18l.37,9.4h19.75l.48-44.47c.11-7.71-1.15-14.37-3.77-19.99-2.62-5.62-6.64-9.98-12.04-13.08Zm-7.47,52.9c-1.61,2.62-3.77,4.76-6.5,6.42-2.73,1.66-5.86,2.49-9.39,2.49-3.85,0-6.85-.67-8.99-2.01-2.14-1.34-3.21-3.18-3.21-5.54,0-3,1.34-5.32,4.01-6.98,2.67-1.66,7.49-2.49,14.45-2.49h12.04c0,2.78-.8,5.49-2.41,8.11Z" style="fill: #012626;"/>
    <path d="m930.98,263.69c-1.28.48-2.46.72-3.53.72-2.89,0-5.08-.88-6.58-2.65-1.5-1.77-2.25-4.36-2.25-7.79v-34.2h20.07v-17.98h-20.07v-25.05h-21.19v25.05h-13v17.98h13v38.85c0,8.13,2.27,14.4,6.82,18.78,4.55,4.39,11.26,6.58,20.15,6.58,3.1,0,6.23-.62,9.39-1.85,3.16-1.23,6.02-2.81,8.59-4.74l-7.38-15.89c-1.39.96-2.73,1.69-4.01,2.17Z" style="fill: #012626;"/>
    <path d="m966.14,164.4c-3.21,0-6.05,1.2-8.51,3.61-2.46,2.41-3.69,5.27-3.69,8.59s1.23,6.18,3.69,8.59c2.46,2.41,5.3,3.61,8.51,3.61s6.18-1.2,8.59-3.61c2.41-2.41,3.61-5.27,3.61-8.59s-1.2-6.18-3.61-8.59c-2.41-2.41-5.27-3.61-8.59-3.61Z" style="fill: #012626;"/>
    <rect x="955.54" y="201.8" width="21.19" height="80.27" style="fill: #012626;"/>
    <path d="m1053.95,205.26c-6.32-3.59-13.59-5.38-21.83-5.38s-15.36,1.79-21.67,5.38c-6.32,3.59-11.24,8.54-14.77,14.85-3.53,6.32-5.3,13.59-5.3,21.83s1.79,15.52,5.38,21.83c3.58,6.32,8.53,11.27,14.85,14.85,6.31,3.58,13.59,5.38,21.83,5.38s15.33-1.79,21.59-5.38c6.26-3.58,11.16-8.53,14.69-14.85,3.53-6.31,5.3-13.59,5.3-21.83s-1.77-15.52-5.3-21.83c-3.53-6.31-8.46-11.26-14.77-14.85Zm-4.17,48.32c-1.71,3.37-4.04,6.02-6.98,7.95-2.94,1.93-6.4,2.89-10.35,2.89s-7.49-.96-10.6-2.89c-3.11-1.93-5.51-4.57-7.22-7.95-1.71-3.37-2.57-7.25-2.57-11.64s.86-8.27,2.57-11.64c1.71-3.37,4.09-6.02,7.14-7.95,3.05-1.93,6.55-2.89,10.51-2.89s7.31.96,10.35,2.89c3.05,1.93,5.43,4.57,7.14,7.95,1.71,3.37,2.57,7.25,2.57,11.64s-.86,8.27-2.57,11.64Z" style="fill: #012626;"/>
    <path d="m1147.06,203.73c-4.5-2.57-9.9-3.85-16.21-3.85s-11.43,1.58-15.97,4.74c-2.99,2.08-5.53,4.77-7.65,8.05l-.94-10.85h-19.91v80.27h21.19v-42.06c0-6.74,1.47-11.82,4.41-15.25,2.94-3.42,7.14-5.08,12.6-4.98,3,0,5.62.67,7.87,2.01,2.25,1.34,3.99,3.51,5.22,6.5,1.23,3,1.85,7.22,1.85,12.68v41.1h21.19v-45.43c.11-8.56-1.02-15.55-3.37-20.95-2.36-5.4-5.78-9.39-10.27-11.96Z" style="fill: #012626;"/>
  </g>
</svg>